<svg width="60" height="60" viewBox="0 0 60 60" fill="none" xmlns="http://www.w3.org/2000/svg">
<circle cx="30" cy="30" r="30" fill="#FFFFF8"/>
<path d="M13.0435 29.5C12.7673 29.5 12.5435 29.7239 12.5435 30C12.5435 30.2761 12.7673 30.5 13.0435 30.5V29.5ZM46.1099 30.3536C46.3051 30.1583 46.3051 29.8417 46.1099 29.6464L42.9279 26.4645C42.7326 26.2692 42.4161 26.2692 42.2208 26.4645C42.0255 26.6597 42.0255 26.9763 42.2208 27.1716L45.0492 30L42.2208 32.8284C42.0255 33.0237 42.0255 33.3403 42.2208 33.5355C42.4161 33.7308 42.7326 33.7308 42.9279 33.5355L46.1099 30.3536ZM13.0435 30.5H45.7563V29.5H13.0435V30.5Z" fill="#323232"/>
</svg>
