<svg width="60" height="60" viewBox="0 0 60 60" fill="none" xmlns="http://www.w3.org/2000/svg">
<circle cx="30" cy="30" r="30" transform="rotate(-180 30 30)" fill="#FFFFF8"/>
<path d="M46.9565 30.5C47.2327 30.5 47.4565 30.2761 47.4565 30C47.4565 29.7239 47.2327 29.5 46.9565 29.5V30.5ZM13.8901 29.6464C13.6949 29.8417 13.6949 30.1583 13.8901 30.3536L17.0721 33.5355C17.2674 33.7308 17.5839 33.7308 17.7792 33.5355C17.9745 33.3403 17.9745 33.0237 17.7792 32.8284L14.9508 30L17.7792 27.1716C17.9745 26.9763 17.9745 26.6597 17.7792 26.4645C17.5839 26.2692 17.2674 26.2692 17.0721 26.4645L13.8901 29.6464ZM46.9565 29.5L14.2437 29.5V30.5L46.9565 30.5V29.5Z" fill="#323232"/>
</svg>
