<svg width="24" height="24" viewBox="0 0 24 24" fill="none" xmlns="http://www.w3.org/2000/svg">
<path d="M15.0003 3.01001V9.00001" stroke="#323232" stroke-width="1.5" stroke-linecap="round" stroke-linejoin="round"/>
<path d="M8.99996 4.78003V19" stroke="#323232" stroke-width="1.5" stroke-linecap="round" stroke-linejoin="round"/>
<path d="M21 9.99999V5.61299C21 5.18199 20.724 4.79999 20.316 4.66399L15.632 3.10299C15.22 2.96599 14.776 2.96599 14.364 3.10299L9.632 4.67999C9.221 4.81699 8.778 4.81699 8.367 4.67999L4.316 3.32999C3.669 3.11399 3 3.59599 3 4.27899V15.618C3 15.997 3.214 16.344 3.553 16.513L8.106 18.789C8.669 19.071 9.332 19.07 9.895 18.789L12 17.736" stroke="#323232" stroke-width="1.5" stroke-linecap="round" stroke-linejoin="round"/>
<path fill-rule="evenodd" clip-rule="evenodd" d="M19.1918 20.7189C18.8058 21.0939 18.1948 21.0939 17.8088 20.7189C16.7878 19.7279 14.9998 17.7239 14.9998 15.8479C14.9998 13.9149 16.5668 12.3479 18.4998 12.3479C20.4328 12.3479 21.9998 13.9149 21.9998 15.8479C21.9998 17.7239 20.2118 19.7279 19.1918 20.7189Z" stroke="#323232" stroke-width="1.5" stroke-linecap="round" stroke-linejoin="round"/>
<path d="M18.4992 15.485C18.3552 15.485 18.2391 15.602 18.2401 15.7451C18.2401 15.8891 18.3572 16.0052 18.5002 16.0052C18.6433 16.0052 18.7603 15.8881 18.7603 15.7451C18.7603 15.601 18.6443 15.485 18.4992 15.485" stroke="#323232" stroke-width="1.5" stroke-linecap="round" stroke-linejoin="round"/>
</svg>
