<svg width="84" height="84" viewBox="0 0 84 84" fill="none" xmlns="http://www.w3.org/2000/svg">
<path d="M22.8539 12.3046C21.1969 13.0428 17.8828 17.571 16.2422 21.328C14.5359 25.2163 13.7812 28.9077 13.7812 33.2717C13.7977 40.4577 16.193 47.0038 20.8195 52.4014L21.7875 53.5335L21.5414 54.5343C21.2461 55.7975 20.6719 58.9967 20.6719 59.4233C20.6719 59.6038 20.8852 59.9647 21.1477 60.2272C22.0664 61.146 23.3133 60.6538 23.543 59.2921C24.3961 54.1077 25.6102 50.1866 27.6281 46.1014C32.8617 35.5686 42.0492 27.628 53.1562 24.035C56.9133 22.821 60.8508 22.1319 64.1484 22.0827C66.1828 22.0663 66.1992 22.0663 66.3797 22.4764C66.7242 23.1819 67.1344 27.4803 67.2164 31.2866C67.3641 37.3077 66.8883 42.0327 65.7727 45.3632C64.2633 49.8749 62.0648 53.5335 58.8164 56.9132C54.4031 61.4905 49.1695 64.3616 42.7383 65.7397C40.7859 66.1499 40.2937 66.1827 36.9961 66.1827C34.1906 66.1991 33.0258 66.1335 31.7625 65.8874C29.2523 65.428 29.2852 65.5264 31.1227 64.2303C38.8172 58.8491 45.6258 51.6303 50.4656 43.7061C51.0562 42.7546 51.5977 41.7866 51.6797 41.5733C51.9914 40.753 51.1875 39.703 50.2359 39.703C49.7109 39.703 49.2844 40.1788 48.1031 42.0819C40.868 53.8124 29.8922 63.2788 17.407 68.5944C16.1766 69.1194 15.0117 69.71 14.8148 69.9069C14.2898 70.3991 14.3062 71.2522 14.8641 71.81C15.2086 72.1546 15.3891 72.2202 15.9633 72.1546C16.8492 72.0397 20.9016 70.2514 23.8711 68.66L26.168 67.4132L27.5625 67.8233C33.6656 69.5788 40.0312 69.5788 46.1016 67.8397C57.1102 64.6733 65.8219 55.8796 68.8898 44.7889C70.2516 39.9163 70.4648 29.7936 69.382 22.7389C69.1031 20.9671 68.5781 20.1303 67.3477 19.4741C65.707 18.6046 58.193 19.4741 52.6805 21.1639C47.6602 22.7061 41.8359 25.7413 38.0297 28.8092C37.4227 29.3014 36.8977 29.6952 36.8484 29.6952C36.7828 29.6952 36.75 29.4819 36.75 29.2194C36.75 28.4483 36.2742 26.1842 35.8312 24.8225C34.1742 19.7038 30.1711 14.7163 25.9875 12.5342C24.7406 11.878 23.9039 11.8288 22.8539 12.3046ZM26.5945 16.3733C31.1391 19.9991 33.7312 25.0358 34.0102 30.8436L34.0758 32.2217L32.7469 33.6327C31.2375 35.2241 29.5969 37.2257 28.7273 38.5382L28.1367 39.4241L27.9398 36.6514C27.743 33.5999 27.4148 31.1882 26.8078 28.0546C26.2172 25.0358 26.0695 24.7733 24.8883 24.7733C24.3469 24.7733 23.7891 25.1999 23.5922 25.7577C23.543 25.9053 23.707 27.0866 23.9695 28.3827C24.8555 32.878 25.1508 35.7819 25.1672 40.2772V44.3788L24.3305 46.2655C23.8711 47.2991 23.3297 48.628 23.1164 49.2022L22.7391 50.2522L22.2633 49.6944C20.7211 47.8569 18.9328 44.6085 17.9812 41.8522C16.882 38.7186 16.6687 37.2749 16.6523 33.3046C16.6523 29.4491 16.7836 28.5303 17.7516 25.3475C18.7359 22.0991 21.0656 17.9483 23.182 15.7007L24.068 14.7327L24.7406 15.0772C25.1016 15.2577 25.9383 15.8483 26.5945 16.3733Z" fill="#323232"/>
</svg>
