<svg width="76" height="74" viewBox="0 0 76 74" fill="none" xmlns="http://www.w3.org/2000/svg">
<path d="M36.5727 0.364868C36.1133 0.545341 30.3547 8.73206 26.7617 14.2938C17.6398 28.4196 12.5539 39.2313 12.1273 45.4821C12.0289 46.9422 12.0453 46.9914 12.4555 47.4016C12.9805 47.9266 13.6859 47.9594 14.1781 47.5C14.5883 47.1227 14.6047 47.0242 14.8508 44.875C15.425 39.7399 19.5102 30.8805 26.5484 19.5602C30.0758 13.9 36.8352 3.94144 37.1797 3.94144C37.5078 3.94144 44.2836 13.8836 47.6797 19.3469C54.3406 30.0766 58.1797 38.0828 59.3445 43.7266C59.6398 45.1867 59.6726 45.7774 59.5906 47.5821C59.3281 53.4063 56.9 58.7219 52.6508 62.7742C50.7969 64.5297 49.1398 65.6617 46.8266 66.7774C41.8062 69.1891 36.2117 69.6485 30.8961 68.1063C29.157 67.5977 28.9766 67.5813 28.4187 68.0242C27.9266 68.418 27.8445 69.1891 28.2383 69.7633C28.5336 70.1735 29.7969 70.6164 32.3234 71.1578C34.7352 71.6828 39.6078 71.6828 42.1016 71.1414C44.4969 70.6328 45.9734 70.1242 48.2539 69.0086C50.8461 67.7289 52.7984 66.3344 54.8984 64.2344C56.9984 62.1344 58.393 60.1821 59.6726 57.5899C61.4937 53.8492 62.1664 51.0438 62.1828 47.0078C62.1992 44.6946 62.15 44.0711 61.8055 42.6602C60.4109 36.8032 56.6211 28.8461 50.3375 18.625C47.0891 13.3258 39.4601 2.13675 38.1477 0.725807C37.7211 0.266434 37.1305 0.135185 36.5727 0.364868Z" fill="#323232"/>
<path d="M7.7633 1.59531C7.61564 1.71016 7.27111 2.41562 7.00861 3.15391C6.05705 5.86094 4.6133 7.71484 2.26721 9.22422C0.0851744 10.6352 0.052362 11.3078 2.07033 12.5383C4.40002 13.9492 6.04064 15.9836 6.91017 18.543C7.38596 19.9211 7.91096 20.5938 8.51799 20.5938C9.19064 20.5938 9.58439 20.1344 10.011 18.8219C10.257 18.1164 10.7164 17.0664 11.061 16.4922C11.8485 15.1141 13.686 13.293 15.0641 12.5055C16.918 11.4391 16.9344 10.5039 15.1133 9.45391C14.5719 9.14219 13.5383 8.28906 12.8164 7.55078C11.3891 6.13984 10.618 4.84375 9.94533 2.82578C9.74846 2.20234 9.45314 1.66094 9.28908 1.5625C8.86252 1.33281 8.09142 1.36562 7.7633 1.59531ZM11.1594 9.68359L12.5047 11.0125L11.7828 11.5703C10.9297 12.2594 9.6172 13.7852 9.02658 14.7859C8.79689 15.1797 8.58361 15.5078 8.56721 15.5078C8.53439 15.5078 8.18986 15.0156 7.77971 14.3922C7.36955 13.7852 6.50002 12.768 5.82736 12.1445L4.59689 10.9961L5.9258 9.68359C6.66408 8.96172 7.53361 7.91172 7.87814 7.35391L8.50158 6.33672L9.15783 7.35391C9.51877 7.91172 10.4211 8.96172 11.1594 9.68359Z" fill="#323232"/>
<path d="M66.6781 18.2969C66.4156 18.4937 66.186 18.9203 66.0711 19.3961C65.382 22.0867 63.4461 24.4984 60.4602 26.3359C59.0492 27.1891 59.2461 28.1406 61.0344 29.1906C63.282 30.5195 65.136 32.8328 65.907 35.2773C66.35 36.6719 66.7438 37.1641 67.4492 37.1641C68.1547 37.1641 68.5977 36.6883 68.9258 35.5727C69.6313 33.1609 71.8297 30.3555 73.9625 29.1414C75.9477 28.0258 75.9149 27.1234 73.8641 25.9258C72.7977 25.3023 71.1078 23.7602 70.468 22.8086C69.9266 22.0047 69.2375 20.5773 68.9258 19.6094C68.4336 18.0508 67.5969 17.5586 66.6781 18.2969ZM68.4008 24.3836C68.8274 24.9906 69.6641 25.9422 70.2875 26.5164L71.4031 27.5336L70.0578 28.8625C69.3195 29.6008 68.45 30.618 68.1055 31.1594C67.7774 31.6844 67.4492 32.0453 67.3836 31.9797C67.318 31.8977 66.9242 31.3398 66.4977 30.7492C66.0711 30.1422 65.2344 29.1906 64.6109 28.6164L63.4789 27.5664L64.7422 26.3852C65.4477 25.7289 66.3336 24.7117 66.7109 24.1211C67.1047 23.5305 67.4656 23.1039 67.5313 23.1695C67.5805 23.2352 67.9742 23.793 68.4008 24.3836Z" fill="#323232"/>
<path d="M18.5258 44.793C18.0664 44.9898 17.968 45.1703 17.5742 46.4664C16.1141 51.257 13.1117 55.0797 8.92814 57.4914C7.38595 58.3773 7.05783 58.8203 7.33674 59.6078C7.46799 59.9852 7.7797 60.2641 8.60002 60.7234C11.061 62.0688 13.5547 64.3328 15.0805 66.6461C16.0649 68.1391 17.2133 70.5672 17.5742 71.9453C17.9024 73.1594 18.411 73.75 19.1492 73.75C19.8547 73.75 20.1664 73.3234 20.675 71.6828C22.1188 67.0398 25.3016 63.0695 29.3867 60.8383C30.6992 60.1164 31.1094 59.575 30.8469 58.8695C30.6992 58.4266 30.4367 58.2133 28.1399 56.7695C24.9242 54.768 21.8727 50.65 20.675 46.7125C20.0844 44.7766 19.5922 44.3336 18.5258 44.793ZM20.0516 51.8477C20.4453 52.5531 21.1836 53.6852 21.6922 54.3414C22.7586 55.7359 25.0063 57.918 26.0891 58.5906C26.4992 58.8531 26.8438 59.0992 26.8438 59.1484C26.8438 59.1977 26.45 59.5258 25.9906 59.8867C23.1852 61.9539 20.9047 64.6281 19.5102 67.4664L19.0836 68.3688L18.411 67.0727C17.0328 64.4477 15.1133 62.1672 12.7016 60.2805L11.2578 59.1813L12.3735 58.3938C14.6539 56.7531 17.443 53.4391 18.6735 50.8961C18.936 50.3383 19.0836 50.1578 19.182 50.3219C19.2477 50.4367 19.6414 51.1258 20.0516 51.8477Z" fill="#323232"/>
</svg>
