<svg width="24" height="24" viewBox="0 0 24 24" fill="none" xmlns="http://www.w3.org/2000/svg">
<path fill-rule="evenodd" clip-rule="evenodd" d="M10.856 13.1439C9.68602 11.9739 8.80402 10.6639 8.21802 9.33487C8.09402 9.05387 8.16702 8.72487 8.38402 8.50787L9.20302 7.68987C9.87402 7.01887 9.87402 6.06987 9.28802 5.48387L8.11402 4.30987C7.33302 3.52887 6.06702 3.52887 5.28602 4.30987L4.63402 4.96187C3.89302 5.70287 3.58402 6.77187 3.78402 7.83187C4.27802 10.4449 5.79602 13.3059 8.24502 15.7549C10.694 18.2039 13.555 19.7219 16.168 20.2159C17.228 20.4159 18.297 20.1069 19.038 19.3659L19.689 18.7149C20.47 17.9339 20.47 16.6679 19.689 15.8869L18.516 14.7139C17.93 14.1279 16.98 14.1279 16.395 14.7139L15.492 15.6179C15.275 15.8349 14.946 15.9079 14.665 15.7839C13.336 15.1969 12.026 14.3139 10.856 13.1439Z" stroke="#236A11" stroke-width="1.5" stroke-linecap="round" stroke-linejoin="round"/>
</svg>
