<svg width="30" height="30" viewBox="0 0 30 30" fill="none" xmlns="http://www.w3.org/2000/svg">
<path fill-rule="evenodd" clip-rule="evenodd" d="M13.5701 16.43C12.1076 14.9675 11.0051 13.33 10.2726 11.6687C10.1176 11.3175 10.2088 10.9062 10.4801 10.635L11.5038 9.61246C12.3426 8.77371 12.3426 7.58746 11.6101 6.85496L10.1426 5.38746C9.16631 4.41121 7.58381 4.41121 6.60756 5.38746L5.79256 6.20246C4.86631 7.12871 4.48006 8.46496 4.73006 9.78996C5.34756 13.0562 7.24506 16.6325 10.3063 19.6937C13.3676 22.755 16.9438 24.6525 20.2101 25.27C21.5351 25.52 22.8713 25.1337 23.7976 24.2075L24.6113 23.3937C25.5876 22.4175 25.5876 20.835 24.6113 19.8587L23.1451 18.3925C22.4126 17.66 21.2251 17.66 20.4938 18.3925L19.3651 19.5225C19.0938 19.7937 18.6826 19.885 18.3313 19.73C16.6701 18.9962 15.0326 17.8925 13.5701 16.43Z" stroke="#FFFFF8" stroke-width="1.5" stroke-linecap="round" stroke-linejoin="round"/>
</svg>
