<svg width="36" height="36" viewBox="0 0 36 36" fill="none" xmlns="http://www.w3.org/2000/svg">
<path fill-rule="evenodd" clip-rule="evenodd" d="M16.2839 19.716C14.5289 17.961 13.2059 15.996 12.3269 14.0025C12.1409 13.581 12.2504 13.0875 12.5759 12.762L13.8044 11.535C14.8109 10.5285 14.8109 9.10499 13.9319 8.22599L12.1709 6.46499C10.9994 5.29349 9.10035 5.29349 7.92885 6.46499L6.95085 7.44299C5.83935 8.55449 5.37585 10.158 5.67585 11.748C6.41685 15.6675 8.69385 19.959 12.3674 23.6325C16.0409 27.306 20.3324 29.583 24.2519 30.324C25.8419 30.624 27.4454 30.1605 28.5569 29.049L29.5334 28.0725C30.7049 26.901 30.7049 25.002 29.5334 23.8305L27.7739 22.071C26.8949 21.192 25.4699 21.192 24.5924 22.071L23.2379 23.427C22.9124 23.7525 22.4189 23.862 21.9974 23.676C20.0039 22.7955 18.0389 21.471 16.2839 19.716Z" stroke="black" stroke-width="3" stroke-linecap="round" stroke-linejoin="round"/>
</svg>
