<svg width="24" height="24" viewBox="0 0 24 24" fill="none" xmlns="http://www.w3.org/2000/svg">
<path d="M12 3C16.982 3 21 7.018 21 12C21 16.982 16.982 21 12 21" stroke="#3D89B4" stroke-width="1.5" stroke-linecap="round" stroke-linejoin="round"/>
<path d="M12 21C7.018 21 3 16.982 3 12C3 7.018 7.018 3 12 3" stroke="#3D89B4" stroke-width="1.5" stroke-linecap="round" stroke-linejoin="round"/>
<path fill-rule="evenodd" clip-rule="evenodd" d="M10.168 4.06024C7.27799 8.88524 7.27799 15.1162 10.168 19.9412C11.014 21.3542 12.987 21.3542 13.833 19.9412C16.723 15.1162 16.723 8.88524 13.833 4.06024C12.986 2.64724 11.014 2.64724 10.168 4.06024Z" stroke="#3D89B4" stroke-width="1.5" stroke-linecap="round" stroke-linejoin="round"/>
<path d="M4.01001 7.85791C8.90201 9.36891 15.098 9.36891 19.989 7.85791" stroke="#3D89B4" stroke-width="1.5" stroke-linecap="round" stroke-linejoin="round"/>
<path d="M19.99 16.142C15.098 14.631 8.90199 14.631 4.01099 16.142" stroke="#3D89B4" stroke-width="1.5" stroke-linecap="round" stroke-linejoin="round"/>
</svg>
