<svg width="263" height="328" viewBox="0 0 263 328" fill="none" xmlns="http://www.w3.org/2000/svg">
<path d="M0.989677 327.195C16.1411 325.848 32.5996 323.012 48.2114 317.839C67.4917 311.451 89.6375 288.658 99.8008 271.392C111.441 251.616 115.959 231.4 113.166 208.721C111.748 197.209 108.131 181.879 93.5801 191.797C83.7253 198.513 88.7552 215.931 99.5728 223.242C103.582 225.952 106.76 227.348 110.868 228.62C118.208 231.781 129.344 230.392 137.27 230.407C151.503 228.851 163.571 224.214 176.513 215.688C203.493 197.914 225.419 171.528 234.88 149.212C246.736 121.249 256.049 88.5168 259.737 58.3486C262.362 36.874 264.522 21.4616 257.742 0.999831" stroke="#DEDEDE" stroke-linecap="round" stroke-dasharray="10 10"/>
</svg>
