<svg width="1286" height="1286" viewBox="0 0 1286 1286" fill="none" xmlns="http://www.w3.org/2000/svg">
<g filter="url(#filter0_d_278_295)">
<path fill-rule="evenodd" clip-rule="evenodd" d="M643.192 2C678.549 11.9317 745.925 62.3054 732.577 184.346C783.428 164.086 889.657 153.359 907.773 272.54C910.554 308.691 894.663 383.14 808.853 391.721C786.606 384.967 746.641 360.495 764.756 316.637C775.085 305.911 799.795 293.516 816.004 329.747C840.634 321.801 875.117 294.231 816.004 247.512C783.825 237.58 711.84 240.123 681.33 329.747C672.987 357.953 672.272 423.423 736.153 459.654C712.178 477.441 671.867 526.32 696.996 582.547C715.025 596.796 765.422 609.864 824.346 549.039C844.21 583.204 906.819 637.709 998.35 582.41C1026.56 560.163 1070.1 501.367 1018.61 444.16C1001.13 434.228 963.788 425.091 954.253 467.996C966.171 473.161 986.432 489.21 972.13 512.093C959.021 527.189 924.935 541.411 893.471 477.531C891.882 445.749 912.54 380.994 1007.88 376.227C1061.12 381.392 1153.28 424.138 1096.08 553.806C1143.75 544.272 1247.68 548.324 1282 640.808C1272.07 676.165 1221.69 743.542 1099.65 730.194C1119.91 781.044 1130.64 887.274 1011.46 905.389C975.308 908.17 900.86 892.279 892.279 806.469C899.033 784.222 923.505 744.257 967.363 762.372C978.089 772.701 990.484 797.411 954.253 813.62C962.199 838.251 989.769 872.734 1036.49 813.62C1046.42 781.441 1043.88 709.456 954.253 678.946C926.047 670.603 860.577 669.888 824.346 733.769C806.253 709.382 755.991 668.093 698.547 695.967L699.207 696.823C669.65 754.983 711.522 806.072 736.153 824.346C672.272 860.577 672.987 926.047 681.33 954.253C711.84 1043.88 783.825 1046.42 816.004 1036.49C875.117 989.769 840.634 962.199 816.004 954.253C799.795 990.484 775.085 978.089 764.756 967.363C746.641 923.505 786.606 899.033 808.853 892.279C894.663 900.86 910.554 975.308 907.773 1011.46C889.657 1130.64 783.428 1119.91 732.577 1099.65C745.925 1221.69 678.549 1272.07 643.192 1282C550.708 1247.68 546.655 1143.75 556.19 1096.08C426.521 1153.28 383.775 1061.12 378.611 1007.88C383.378 912.54 448.133 891.882 479.914 893.471C543.795 924.935 529.573 959.021 514.477 972.13C491.594 986.432 475.544 966.171 470.38 954.253C427.475 963.788 436.612 1001.13 446.544 1018.61C503.75 1070.1 562.546 1026.56 584.793 998.35C640.093 906.819 585.588 844.21 551.423 824.346C610.329 767.281 599.931 718.212 586.273 698.798C567.644 684.78 517.8 672.847 459.654 732.87C439.79 698.704 377.181 644.199 285.65 699.499C257.444 721.746 213.903 780.542 265.389 837.748C282.869 847.68 320.212 856.817 329.747 813.912C317.829 808.748 297.568 792.698 311.87 769.815C324.98 754.719 359.065 740.497 390.529 804.378C392.118 836.159 371.46 900.914 276.115 905.681C222.881 900.517 130.715 857.771 187.922 728.102C140.25 737.637 36.324 733.585 2 641.1C11.9317 605.744 62.3054 538.367 184.346 551.715C164.086 500.865 153.359 394.635 272.54 376.519C308.691 373.739 383.14 389.629 391.721 475.439C384.967 497.686 360.495 537.652 316.637 519.536C305.911 509.207 293.516 484.497 329.747 468.288C321.801 443.658 294.231 409.175 247.512 468.288C237.58 500.467 240.123 572.452 329.747 602.963C357.953 611.305 423.423 612.02 459.654 548.14C477.794 572.59 528.271 614.03 585.901 585.723C599.736 566.677 610.863 517.237 551.423 459.654C585.588 439.79 640.093 377.181 584.793 285.65C562.546 257.444 503.75 213.903 446.544 265.389C436.612 282.869 427.475 320.212 470.38 329.747C475.544 317.829 491.594 297.568 514.477 311.87C529.573 324.98 543.795 359.065 479.914 390.529C448.133 392.118 383.378 371.46 378.611 276.115C383.775 222.881 426.521 130.715 556.19 187.922C546.655 140.25 550.708 36.324 643.192 2Z" fill="#FFFFF8"/>
</g>
<defs>
<filter id="filter0_d_278_295" x="0" y="0" width="1286" height="1286" filterUnits="userSpaceOnUse" color-interpolation-filters="sRGB">
<feFlood flood-opacity="0" result="BackgroundImageFix"/>
<feColorMatrix in="SourceAlpha" type="matrix" values="0 0 0 0 0 0 0 0 0 0 0 0 0 0 0 0 0 0 127 0" result="hardAlpha"/>
<feOffset dx="1" dy="1"/>
<feGaussianBlur stdDeviation="1.5"/>
<feComposite in2="hardAlpha" operator="out"/>
<feColorMatrix type="matrix" values="0 0 0 0 0 0 0 0 0 0 0 0 0 0 0 0 0 0 0.1 0"/>
<feBlend mode="normal" in2="BackgroundImageFix" result="effect1_dropShadow_278_295"/>
<feBlend mode="normal" in="SourceGraphic" in2="effect1_dropShadow_278_295" result="shape"/>
</filter>
</defs>
</svg>
