<svg width="417" height="438" viewBox="0 0 417 438" fill="none" xmlns="http://www.w3.org/2000/svg">
<g filter="url(#filter0_d_63_46)">
<path d="M194.41 -5C206.564 -1.58597 229.724 15.73 225.136 57.6816C242.616 50.7169 279.132 47.0298 285.359 87.9981C286.315 100.425 280.853 126.017 251.356 128.966C243.708 126.645 229.97 118.233 236.197 103.156C239.748 99.4693 248.242 95.2086 253.814 107.663C262.281 104.932 274.134 95.4544 253.814 79.3948C242.752 75.9808 218.007 76.8548 207.52 107.663C204.652 117.359 204.406 139.864 226.365 152.318C218.124 158.433 204.267 175.235 212.905 194.563C219.102 199.461 236.426 203.953 256.682 183.045C263.51 194.789 285.032 213.525 316.495 194.516C326.191 186.868 341.158 166.657 323.46 146.993C317.451 143.578 304.615 140.438 301.337 155.186C305.434 156.962 312.399 162.479 307.482 170.345C302.976 175.534 291.259 180.423 280.443 158.464C279.897 147.539 286.998 125.279 319.773 123.641C338.072 125.416 369.754 140.11 350.089 184.683C366.477 181.406 402.201 182.799 414 214.59C410.586 226.744 393.27 249.905 351.318 245.317C358.283 262.796 361.97 299.313 321.002 305.54C308.575 306.496 282.983 301.034 280.034 271.536C282.355 263.889 290.767 250.151 305.844 256.378C309.531 259.929 313.791 268.423 301.337 273.994C304.068 282.461 313.546 294.315 329.605 273.994C333.019 262.933 332.145 238.188 301.337 227.7C291.641 224.832 269.136 224.587 256.682 246.546C250.462 238.163 233.184 223.969 213.438 233.551L213.665 233.845C203.505 253.838 217.898 271.4 226.365 277.682C204.406 290.136 204.652 312.641 207.52 322.337C218.007 353.145 242.752 354.019 253.814 350.605C274.134 334.546 262.281 325.068 253.814 322.337C248.242 334.791 239.748 330.531 236.197 326.844C229.97 311.767 243.708 303.355 251.356 301.034C280.853 303.983 286.315 329.575 285.359 342.002C279.132 382.97 242.616 379.283 225.136 372.318C229.724 414.27 206.564 431.586 194.41 435C162.618 423.201 161.225 387.477 164.503 371.089C119.929 390.754 105.235 359.072 103.46 340.773C105.099 307.998 127.358 300.897 138.283 301.443C160.242 312.259 155.353 323.976 150.164 328.482C142.298 333.399 136.781 326.434 135.006 322.337C120.257 325.615 123.398 338.451 126.812 344.46C146.477 362.158 166.688 347.191 174.335 337.495C193.344 306.032 174.608 284.51 162.864 277.682C183.113 258.065 179.539 241.198 174.844 234.524C168.44 229.706 151.306 225.604 131.318 246.236C124.49 234.492 102.968 215.756 71.5047 234.765C61.8088 242.413 46.8417 262.624 64.54 282.289C70.5487 285.703 83.3855 288.843 86.6629 274.095C82.5661 272.32 75.6015 266.802 80.5177 258.937C85.0242 253.747 96.7412 248.858 107.557 270.817C108.103 281.742 101.002 304.002 68.2272 305.64C49.928 303.865 18.2458 289.171 37.9106 244.598C21.5233 247.875 -14.2011 246.482 -26 214.691C-22.586 202.537 -5.27002 179.376 36.6816 183.965C29.7169 166.485 26.0298 129.968 66.9981 123.741C79.4252 122.785 105.017 128.248 107.966 157.745C105.645 165.392 97.2328 179.13 82.1564 172.903C78.4693 169.352 74.2086 160.858 86.6629 155.287C83.9317 146.82 74.4544 134.966 58.3948 155.287C54.9808 166.348 55.8548 191.093 86.6629 201.581C96.3588 204.449 118.864 204.694 131.318 182.735C137.554 191.14 154.906 205.385 174.716 195.655C179.472 189.108 183.297 172.113 162.864 152.318C174.608 145.49 193.344 123.968 174.335 92.5047C166.688 82.8088 146.477 67.8417 126.812 85.54C123.398 91.5487 120.257 104.385 135.006 107.663C136.781 103.566 142.298 96.6015 150.164 101.518C155.353 106.024 160.242 117.741 138.283 128.557C127.358 129.103 105.099 122.002 103.46 89.2272C105.235 70.928 119.929 39.2458 164.503 58.9106C161.225 42.5233 162.618 6.79888 194.41 -5Z" fill="#F3FFF0"/>
</g>
<defs>
<filter id="filter0_d_63_46" x="-27.1224" y="-6.12245" width="443.367" height="443.367" filterUnits="userSpaceOnUse" color-interpolation-filters="sRGB">
<feFlood flood-opacity="0" result="BackgroundImageFix"/>
<feColorMatrix in="SourceAlpha" type="matrix" values="0 0 0 0 0 0 0 0 0 0 0 0 0 0 0 0 0 0 127 0" result="hardAlpha"/>
<feOffset dx="0.561225" dy="0.561225"/>
<feGaussianBlur stdDeviation="0.841837"/>
<feComposite in2="hardAlpha" operator="out"/>
<feColorMatrix type="matrix" values="0 0 0 0 0 0 0 0 0 0 0 0 0 0 0 0 0 0 0.1 0"/>
<feBlend mode="normal" in2="BackgroundImageFix" result="effect1_dropShadow_63_46"/>
<feBlend mode="normal" in="SourceGraphic" in2="effect1_dropShadow_63_46" result="shape"/>
</filter>
</defs>
</svg>
