<svg width="281" height="264" viewBox="0 0 281 264" fill="none" xmlns="http://www.w3.org/2000/svg">
<path fill-rule="evenodd" clip-rule="evenodd" d="M157.056 1L157.032 1.00906L157.009 1L157.001 1.02135C147.436 4.73967 129.944 19.2979 135.802 46.5722C129.533 42.8418 119.022 41.008 109.969 44.0644C105.396 45.6083 101.193 48.4006 98.0995 52.8279C95.0056 57.255 93.0246 63.3107 92.884 71.3742L92.8842 71.3818C93.1503 75.4364 94.7601 81.5893 98.5856 86.7404C102.414 91.8951 108.461 96.0456 117.591 96.0831L117.602 96.0832L117.612 96.0807C120.005 95.514 123.742 93.3257 126.32 90.2001C128.9 87.0712 130.331 82.9834 128.062 78.6339L128.058 78.6274L128.054 78.6215C126.951 77.1402 124.729 75.4826 122.277 75.3323C121.047 75.257 119.763 75.5608 118.538 76.4524C117.323 77.3363 116.172 78.7945 115.19 81.0226C112.986 81.1775 109.901 79.6663 108.283 76.8892C106.659 74.1021 106.506 70.0256 110.267 65.0712C112.344 62.9338 116.048 60.645 120.964 60.2679C125.88 59.8907 132.02 61.4251 138.968 66.955C143.533 70.5883 148.131 78.4493 148.714 87.1996C149.297 95.9413 145.873 105.572 134.39 112.761L134.282 112.828L134.38 112.909C137.6 115.569 141.596 120.153 143.861 125.628C146.125 131.101 146.658 137.457 142.97 143.678L143.034 143.716C136.859 147.311 130.559 146.768 125.128 144.522C119.653 142.257 115.069 138.261 112.409 135.041L112.328 134.943L112.261 135.051C105.072 146.534 95.4413 149.958 86.6996 149.375C77.9493 148.792 70.0883 144.194 66.455 139.629C60.9251 132.681 59.3907 126.542 59.7679 121.625C60.145 116.709 62.4338 113.005 64.5712 110.928C69.5256 107.168 73.6021 107.32 76.3892 108.944C79.1663 110.562 80.6775 113.647 80.5226 115.851C78.2945 116.833 76.8363 117.984 75.9524 119.199C75.0608 120.424 74.757 121.709 74.8323 122.938C74.9826 125.39 76.6402 127.612 78.1215 128.715L78.1274 128.719L78.1339 128.723C82.4834 130.992 86.5712 129.561 89.7001 126.981C92.8257 124.403 95.014 120.666 95.5807 118.273L95.5832 118.263L95.5831 118.252C95.5456 109.122 91.3951 103.075 86.2404 99.2467C81.0893 95.4212 74.9364 93.8114 70.8818 93.5453L70.8742 93.5448C62.8107 93.6854 56.755 95.6667 52.3279 98.7605C47.9006 101.855 45.1083 106.057 43.5644 110.63C40.508 119.683 42.3418 130.194 46.0722 136.463C18.7979 130.605 4.23967 148.097 0.521345 157.662L0.5 157.67L0.509059 157.693L0.5 157.717L0.521345 157.725C4.23967 167.29 18.7979 184.781 46.0722 178.924C42.3418 185.193 40.508 195.704 43.5644 204.757C45.1083 209.329 47.9006 213.532 52.3279 216.626C56.755 219.72 62.8107 221.701 70.8742 221.842L70.8818 221.842C74.9364 221.576 81.0893 219.965 86.2404 216.14C91.3951 212.312 95.5456 206.264 95.5831 197.135L95.5832 197.124L95.5807 197.113C95.014 194.72 92.8257 190.983 89.7001 188.406C86.5712 185.826 82.4834 184.395 78.1339 186.664L78.1274 186.667L78.1215 186.672C76.6402 187.775 74.9826 189.997 74.8323 192.449C74.757 193.678 75.0608 194.963 75.9524 196.188C76.8363 197.403 78.2945 198.554 80.5226 199.536C80.6775 201.739 79.1663 204.824 76.3892 206.443C73.6021 208.067 69.5255 208.219 64.5712 204.459C62.4338 202.381 60.145 198.678 59.7679 193.762C59.3907 188.845 60.9251 182.706 66.455 175.758C70.0883 171.193 77.9493 166.595 86.6996 166.012C95.4413 165.429 105.072 168.853 112.261 180.336L112.328 180.443L112.409 180.345C115.069 177.125 119.653 173.13 125.128 170.865C130.571 168.613 136.889 168.073 143.077 171.695C146.648 177.858 146.103 184.144 143.861 189.563C141.596 195.038 137.6 199.622 134.38 202.282L134.282 202.363L134.39 202.431C145.873 209.619 149.297 219.25 148.714 227.992C148.131 236.742 143.533 244.603 138.968 248.237C132.02 253.767 125.88 255.301 120.964 254.924C116.048 254.547 112.344 252.258 110.267 250.121C106.506 245.166 106.659 241.09 108.283 238.302C109.901 235.525 112.986 234.014 115.19 234.169C116.172 236.397 117.323 237.855 118.538 238.739C119.763 239.631 121.047 239.935 122.277 239.859C124.729 239.709 126.951 238.052 128.054 236.57L128.058 236.564L128.062 236.558C130.331 232.208 128.9 228.121 126.32 224.992C123.742 221.866 120.005 219.678 117.612 219.111L117.602 219.109L117.591 219.109C108.461 219.146 102.414 223.297 98.5856 228.451C94.7601 233.602 93.1503 239.755 92.8842 243.81L92.8837 243.817C93.0243 251.881 95.0056 257.937 98.0995 262.364C101.193 266.791 105.396 269.583 109.969 271.127C119.022 274.184 129.533 272.35 135.802 268.619C129.944 295.894 147.436 310.452 157.001 314.17L157.009 314.192L157.032 314.183L157.056 314.192L157.064 314.17C166.629 310.452 184.12 295.894 178.263 268.619C184.532 272.35 195.043 274.184 204.095 271.127C208.668 269.583 212.871 266.791 215.965 262.364C219.059 257.937 221.04 251.881 221.18 243.817L221.181 243.81C220.914 239.755 219.304 233.602 215.479 228.451C211.651 223.297 205.603 219.146 196.474 219.109L196.463 219.109L196.452 219.111C194.059 219.678 190.322 221.866 187.745 224.992C185.165 228.121 183.733 232.208 186.003 236.558L186.006 236.564L186.011 236.57C187.114 238.052 189.336 239.709 191.788 239.859C193.017 239.935 194.302 239.631 195.527 238.739C196.741 237.855 197.893 236.397 198.875 234.169C201.078 234.014 204.163 235.525 205.782 238.302C207.406 241.09 207.558 245.166 203.798 250.121C201.72 252.258 198.017 254.547 193.101 254.924C188.184 255.301 182.045 253.767 175.097 248.237C170.532 244.603 165.934 236.742 165.35 227.992C164.768 219.25 168.192 209.619 179.675 202.431L179.782 202.363L179.684 202.282C176.464 199.622 172.469 195.038 170.204 189.563C167.958 184.135 167.415 177.837 171.005 171.665C177.177 168.076 183.474 168.619 188.902 170.864C194.377 173.129 198.961 177.125 201.621 180.345L201.702 180.443L201.77 180.335C208.958 168.852 218.589 165.428 227.331 166.011C236.081 166.594 243.942 171.193 247.576 175.757C253.105 182.705 254.64 188.845 254.263 193.761C253.886 198.677 251.597 202.381 249.459 204.458C244.505 208.219 240.429 208.067 237.641 206.442C234.864 204.824 233.353 201.739 233.508 199.535C235.736 198.553 237.194 197.402 238.078 196.187C238.97 194.962 239.274 193.678 239.198 192.448C239.048 189.996 237.39 187.774 235.909 186.671L235.903 186.667L235.897 186.663C231.547 184.394 227.459 185.825 224.331 188.405C221.205 190.983 219.017 194.72 218.45 197.113L218.447 197.123L218.447 197.134C218.485 206.264 222.635 212.311 227.79 216.139C232.941 219.965 239.094 221.575 243.149 221.841L243.156 221.841C251.22 221.701 257.276 219.719 261.703 216.626C266.13 213.532 268.922 209.329 270.466 204.756C273.523 195.703 271.689 185.192 267.958 178.924C295.233 184.781 309.791 167.289 313.509 157.724L313.531 157.716L313.522 157.693L313.531 157.669L313.509 157.661C309.791 148.096 295.233 130.605 267.958 136.462C271.689 130.193 273.523 119.682 270.466 110.63C268.922 106.057 266.13 101.854 261.703 98.76C257.276 95.6662 251.22 93.6852 243.156 93.5446L243.149 93.5444C239.094 93.8106 232.941 95.4207 227.79 99.2462C222.635 103.075 218.485 109.122 218.447 118.251L218.447 118.262L218.45 118.273C219.017 120.666 221.205 124.403 224.331 126.98C227.459 129.56 231.547 130.992 235.897 128.722L235.903 128.719L235.909 128.714C237.39 127.611 239.048 125.389 239.198 122.937C239.274 121.708 238.97 120.423 238.078 119.198C237.194 117.984 235.736 116.833 233.508 115.85C233.353 113.647 234.864 110.562 237.641 108.943C240.429 107.319 244.505 107.167 249.459 110.927C251.597 113.005 253.886 116.709 254.263 121.624C254.64 126.541 253.105 132.68 247.576 139.628C243.942 144.193 236.081 148.791 227.331 149.375C218.589 149.957 208.958 146.533 201.77 135.05L201.702 134.943L201.621 135.041C198.961 138.261 194.377 142.256 188.902 144.521C183.477 146.766 177.183 147.31 171.014 143.726L171.094 143.678C167.406 137.457 167.94 131.101 170.204 125.628C172.469 120.153 176.464 115.569 179.684 112.909L179.782 112.828L179.675 112.761C168.192 105.572 164.768 95.9413 165.35 87.1996C165.934 78.4493 170.532 70.5883 175.097 66.955C182.045 61.4251 188.184 59.8907 193.101 60.2679C198.017 60.645 201.72 62.9338 203.798 65.0712C207.558 70.0255 207.406 74.1021 205.782 76.8892C204.163 79.6663 201.078 81.1775 198.875 81.0226C197.893 78.7945 196.741 77.3363 195.527 76.4524C194.302 75.5608 193.017 75.257 191.788 75.3323C189.336 75.4826 187.114 77.1402 186.011 78.6215L186.006 78.6274L186.003 78.6339C183.733 82.9834 185.165 87.0712 187.745 90.2001C190.322 93.3257 194.059 95.514 196.452 96.0807L196.463 96.0832L196.474 96.0831C205.603 96.0456 211.651 91.8951 215.479 86.7404C219.304 81.5893 220.914 75.4364 221.18 71.3818L221.18 71.3742C221.04 63.3107 219.059 57.255 215.965 52.8279C212.871 48.4006 208.668 45.6083 204.095 44.0644C195.043 41.008 184.532 42.8418 178.263 46.5722C184.12 19.2979 166.629 4.73967 157.064 1.02135L157.056 1ZM143.212 171.562C143.184 171.514 143.156 171.467 143.128 171.42L143.049 171.467C136.837 167.886 130.504 168.442 125.058 170.695C119.605 172.951 115.035 176.91 112.349 180.131C105.131 168.675 95.4676 165.243 86.6874 165.829C77.8885 166.415 69.9787 171.036 66.3115 175.644C60.758 182.621 59.2038 188.805 59.5851 193.776C59.9663 198.744 62.2806 202.49 64.4475 204.594L64.4555 204.602C69.4577 208.4 73.6164 208.271 76.4816 206.601C79.3348 204.938 80.8916 201.752 80.7011 199.467L80.6965 199.412L80.6465 199.39C78.4104 198.412 76.9668 197.27 76.1006 196.08C75.2353 194.891 74.9425 193.649 75.0153 192.46C75.1612 190.08 76.7753 187.905 78.2251 186.823C82.484 184.605 86.4898 185.996 89.5834 188.547C92.6773 191.098 94.8394 194.795 95.3998 197.145C95.3592 206.204 91.2433 212.196 86.1311 215.993C81.0147 219.792 74.8995 221.393 70.8736 221.658C62.8406 221.517 56.8236 219.544 52.433 216.476C48.0418 213.407 45.2711 209.239 43.738 204.698C40.6703 195.611 42.5611 185.04 46.3385 178.837L46.4499 178.654L46.2406 178.7C18.9771 184.659 4.43192 167.23 0.705751 157.693C4.43192 148.157 18.9771 130.727 46.2406 136.687L46.4499 136.732L46.3385 136.549C42.5611 130.347 40.6703 119.775 43.738 110.689C45.2711 106.148 48.0418 101.98 52.433 98.9108C56.8236 95.8424 62.8406 93.8691 70.8736 93.7284C74.8995 93.9934 81.0147 95.5942 86.1311 99.3939C91.2433 103.191 95.3592 109.183 95.3998 118.242C94.8394 120.592 92.6773 124.288 89.5834 126.839C86.4898 129.39 82.484 130.782 78.2251 128.564C76.7753 127.481 75.1612 125.307 75.0153 122.927C74.9425 121.738 75.2353 120.496 76.1006 119.307C76.9668 118.116 78.4104 116.975 80.6465 115.996L80.6965 115.975L80.7011 115.92C80.8916 113.634 79.3348 110.448 76.4816 108.786C73.6164 107.116 69.4581 106.987 64.4559 110.785L64.447 110.792C62.2801 112.896 59.9663 116.642 59.5851 121.611C59.2038 126.581 60.758 132.765 66.3115 139.743C69.9787 144.35 77.8885 148.971 86.6874 149.558C95.4676 150.143 105.131 146.711 112.349 135.256C115.035 138.476 119.605 142.435 125.058 144.691C130.569 146.971 136.989 147.514 143.272 143.789L143.195 143.659C146.846 137.412 146.296 131.036 144.03 125.558C141.774 120.105 137.815 115.535 134.594 112.849C146.05 105.631 149.482 95.9676 148.897 87.1874C148.31 78.3885 143.689 70.4787 139.082 66.8115C132.104 61.258 125.92 59.7038 120.95 60.0851C115.981 60.4663 112.236 62.7806 110.131 64.9475L110.124 64.9559C106.326 69.9581 106.455 74.1164 108.124 76.9816C109.787 79.8348 112.973 81.3916 115.259 81.2011L115.313 81.1965L115.335 81.1465C116.314 78.9104 117.455 77.4668 118.646 76.6006C119.834 75.7353 121.077 75.4425 122.265 75.5153C124.646 75.6612 126.82 77.2753 127.902 78.7251C130.121 82.984 128.729 86.9898 126.178 90.0834C123.627 93.1773 119.931 95.3394 117.581 95.8998C108.522 95.8592 102.529 91.7433 98.7328 86.6311C94.9331 81.5147 93.3324 75.3995 93.0674 71.3736C93.2081 63.3406 95.1813 57.3236 98.2497 52.933C101.318 48.5418 105.487 45.7711 110.028 44.238C119.114 41.1703 129.686 43.0611 135.888 46.8385L136.071 46.9499L136.026 46.7406C130.066 19.4771 147.495 4.93192 157.032 1.20575C166.569 4.93192 183.998 19.4771 178.039 46.7406L177.993 46.9499L178.176 46.8385C184.378 43.0611 194.95 41.1703 204.037 44.238C208.578 45.7711 212.746 48.5418 215.815 52.933C218.883 57.3236 220.856 63.3406 220.997 71.3736C220.732 75.3995 219.131 81.5147 215.332 86.6311C211.535 91.7433 205.543 95.8592 196.484 95.8998C194.134 95.3394 190.437 93.1773 187.886 90.0834C185.335 86.9898 183.944 82.984 186.162 78.7251C187.244 77.2753 189.419 75.6612 191.799 75.5153C192.988 75.4425 194.23 75.7353 195.419 76.6006C196.609 77.4668 197.751 78.9104 198.729 81.1465L198.751 81.1965L198.805 81.2011C201.091 81.3916 204.277 79.8348 205.94 76.9816C207.61 74.1164 207.739 69.9581 203.94 64.9559L203.933 64.9475C201.829 62.7806 198.083 60.4663 193.115 60.0851C188.144 59.7038 181.96 61.258 174.983 66.8115C170.375 70.4787 165.754 78.3885 165.168 87.1874C164.582 95.9676 168.014 105.631 179.47 112.849C176.249 115.535 172.29 120.105 170.034 125.558C167.771 131.028 167.22 137.394 170.854 143.632L170.852 143.631L170.759 143.789C177.042 147.514 183.461 146.971 188.972 144.691C194.425 142.435 198.995 138.476 201.682 135.255C208.9 146.711 218.563 150.143 227.343 149.557C236.142 148.971 244.052 144.35 247.719 139.742C253.273 132.765 254.827 126.581 254.446 121.61C254.064 116.642 251.75 112.896 249.583 110.792L249.575 110.784C244.573 106.986 240.414 107.115 237.549 108.785C234.696 110.448 233.139 113.634 233.33 115.92L233.334 115.974L233.384 115.996C235.62 116.974 237.064 118.116 237.93 119.306C238.795 120.495 239.088 121.737 239.015 122.926C238.869 125.306 237.255 127.481 235.805 128.563C231.547 130.782 227.541 129.39 224.447 126.839C221.353 124.288 219.191 120.591 218.631 118.241C218.671 109.182 222.787 103.19 227.9 99.3934C233.016 95.5937 239.131 93.9929 243.157 93.7279C251.19 93.8686 257.207 95.8419 261.598 98.9103C265.989 101.979 268.759 106.147 270.293 110.688C273.36 119.775 271.47 130.347 267.692 136.549L267.581 136.732L267.79 136.686C295.054 130.727 309.599 148.156 313.325 157.693C309.599 167.23 295.054 184.659 267.79 178.699L267.581 178.654L267.692 178.837C271.47 185.039 273.36 195.611 270.293 204.697C268.759 209.238 265.989 213.407 261.598 216.475C257.207 219.544 251.19 221.517 243.157 221.658C239.131 221.393 233.016 219.792 227.9 215.992C222.787 212.196 218.671 206.203 218.631 197.144C219.191 194.794 221.353 191.098 224.447 188.547C227.541 185.996 231.547 184.604 235.805 186.823C237.255 187.905 238.869 190.079 239.015 192.46C239.088 193.648 238.795 194.891 237.93 196.08C237.064 197.27 235.62 198.411 233.384 199.39L233.334 199.412L233.33 199.466C233.139 201.752 234.696 204.938 237.549 206.601C240.414 208.27 244.573 208.399 249.575 204.601L249.584 204.594C251.75 202.49 254.064 198.744 254.446 193.775C254.827 188.805 253.273 182.621 247.719 175.643C244.052 171.036 236.142 166.415 227.343 165.828C218.563 165.243 208.9 168.675 201.682 180.131C198.995 176.91 194.425 172.951 188.972 170.695C183.532 168.444 177.205 167.886 170.999 171.457L170.936 171.42C170.914 171.457 170.893 171.494 170.871 171.531C170.846 171.545 170.821 171.56 170.797 171.574L170.759 171.597L170.796 171.66C167.226 177.866 167.783 184.193 170.034 189.633C172.29 195.087 176.249 199.656 179.47 202.343C168.014 209.561 164.582 219.224 165.168 228.004C165.754 236.803 170.375 244.713 174.983 248.38C181.96 253.934 188.144 255.488 193.115 255.107C198.083 254.725 201.829 252.411 203.933 250.244L203.941 250.236C207.739 245.234 207.61 241.075 205.94 238.21C204.277 235.357 201.091 233.8 198.805 233.991L198.751 233.995L198.729 234.045C197.751 236.281 196.609 237.725 195.419 238.591C194.23 239.456 192.988 239.749 191.799 239.676C189.419 239.53 187.244 237.916 186.162 236.467C183.944 232.208 185.335 228.202 187.886 225.108C190.437 222.014 194.134 219.852 196.484 219.292C205.543 219.333 211.535 223.448 215.332 228.561C219.131 233.677 220.732 239.792 220.997 243.818C220.856 251.851 218.883 257.868 215.815 262.259C212.746 266.65 208.578 269.421 204.037 270.954C194.95 274.021 184.378 272.131 178.176 268.353L177.993 268.242L178.039 268.451C183.998 295.715 166.569 310.26 157.032 313.986C147.495 310.26 130.066 295.715 136.026 268.451L136.071 268.242L135.888 268.353C129.686 272.131 119.114 274.021 110.028 270.954C105.487 269.421 101.318 266.65 98.2497 262.259C95.1813 257.868 93.2081 251.851 93.0674 243.818C93.3324 239.792 94.9331 233.677 98.7328 228.561C102.529 223.448 108.522 219.333 117.581 219.292C119.931 219.852 123.627 222.014 126.178 225.108C128.729 228.202 130.121 232.208 127.902 236.467C126.82 237.916 124.646 239.53 122.265 239.676C121.077 239.749 119.834 239.456 118.646 238.591C117.455 237.725 116.314 236.281 115.335 234.045L115.313 233.995L115.259 233.991C112.973 233.8 109.787 235.357 108.124 238.21C106.455 241.075 106.326 245.234 110.124 250.236L110.131 250.245C112.235 252.412 115.981 254.725 120.95 255.107C125.92 255.488 132.104 253.934 139.082 248.38C143.689 244.713 148.31 236.803 148.897 228.004C149.482 219.224 146.05 209.561 134.594 202.343C137.815 199.656 141.774 195.087 144.03 189.633C146.285 184.184 146.841 177.847 143.252 171.631L143.272 171.597C143.252 171.585 143.232 171.574 143.212 171.562Z" fill="#F4DD96" stroke="#F4DD96" stroke-width="0.5"/>
</svg>
