<svg width="84" height="84" viewBox="0 0 84 84" fill="none" xmlns="http://www.w3.org/2000/svg">
<path d="M39.9492 0.311745C39.3258 0.49221 36.8484 1.31252 34.4531 2.13284C24.15 5.72581 18.6211 6.93987 9.66328 7.61253C6.3 7.85862 5.61094 8.0555 4.61016 9.03987C4.29844 9.35159 3.87187 9.95862 3.675 10.418C3.31406 11.1727 3.28125 11.4516 3.28125 13.7813C3.28125 18.6375 3.80625 27.7594 4.44609 34.043C5.62734 45.6586 7.53047 53.7141 10.2047 58.4883C13.1906 63.8039 17.8336 68.9883 24.1664 74.1235C28.4484 77.5852 32.2383 80.0789 36.1758 82.0477C40.343 84.1149 41.918 84.361 44.7562 83.4094C50.5969 81.457 61.3594 73.7297 67.282 67.2492C73.8937 59.9977 76.2891 54.9445 78.1594 44.2969C79.5867 36.1758 80.7188 22.5258 80.7188 13.6172C80.7188 11.468 80.6859 11.1563 80.325 10.418C80.1281 9.95862 79.7016 9.33518 79.3898 9.03987C78.4219 8.0555 77.7164 7.85862 74.3367 7.61253C65.2312 6.93987 60.1617 5.79143 48.5297 1.80471C42.9352 -0.114822 42.0492 -0.262474 39.9492 0.311745ZM43.1812 2.64143C43.657 2.75627 46.118 3.56018 48.6445 4.42971C51.1711 5.31565 54.4031 6.38206 55.8305 6.80862C61.9336 8.5969 68.5617 9.76174 74.7305 10.1063C76.8141 10.2211 77.3555 10.3852 77.9133 11.0907C78.225 11.4844 78.2578 11.7469 78.2578 13.6008C78.2578 16.2914 77.9953 22.4438 77.6672 26.9063C76.6828 41.0485 74.7797 51.1055 72.1055 56.4375C68.775 63.0821 60.3586 71.5149 51.3516 77.2406C47.4633 79.718 43.5094 81.5391 42.0328 81.5391C39.7687 81.5391 33.7641 78.3235 28.1367 74.1071C19.2117 67.3969 12.8953 59.9321 10.6148 53.386C7.97344 45.8063 6.16875 31.7953 5.80781 15.9961C5.69297 11.5992 5.70937 11.5664 6.07031 11.1071C6.64453 10.3852 7.16953 10.2211 9.26953 10.1063C17.7844 9.63049 25.3148 7.98987 35.3719 4.42971C39.3258 3.03518 41.1305 2.49377 41.8687 2.47737C42.1148 2.46096 42.7055 2.54299 43.1812 2.64143Z" fill="#323232"/>
<path d="M40.7695 10.3523C40.3266 10.5328 37.6687 11.4516 34.8633 12.3867C27.7922 14.7492 22.3125 16.0781 16.3406 16.8328C13.3711 17.2102 13.2891 17.2758 13.2891 19.0477C13.2891 22.0664 14.0273 31.8609 14.6016 36.4547C15.4055 42.8531 16.6195 48.5461 17.8008 51.5156C18.8344 54.1406 20.4258 56.5523 23.2148 59.7188C25.0195 61.7859 27.6773 64.2961 28.1695 64.4109C28.9734 64.6242 29.843 63.5742 29.5477 62.7867C29.4656 62.5734 28.8094 61.8844 28.1039 61.2445C24.757 58.2094 21.3609 53.7961 20.1797 50.9086C18.1617 45.9375 16.5375 34.9781 15.8156 21.443L15.7172 19.3594H16.1109C16.9312 19.3594 22.575 18.3586 25.3805 17.7023C29.1867 16.8164 33.3047 15.6023 37.9805 13.9617C40.0477 13.2234 41.8687 12.6328 42.0164 12.6328C42.1641 12.6328 43.7555 13.1578 45.5437 13.7977C53.2219 16.5211 59.9156 18.2438 66.2484 19.1297C68.168 19.4086 68.25 19.425 68.25 19.8023C68.25 20.557 67.9055 25.8891 67.6594 28.875C66.8719 38.6695 65.4445 46.9055 63.8367 50.843C61.9008 55.6008 56.1258 61.8188 48.6609 67.1836C46.7086 68.5945 42.7875 71.0063 42.2133 71.1375C41.6062 71.3016 37.6031 68.8898 34.125 66.2977C32.2547 64.9031 31.5984 64.7883 31.0898 65.7891C30.7453 66.4453 31.0242 67.0523 31.9922 67.7906C35.6836 70.6125 41.032 73.8281 42.0164 73.8281C42.525 73.8281 45.8062 72.0727 47.9719 70.6453C55.8305 65.4445 62.8031 58.4883 65.4281 53.2383C66.9539 50.1867 67.9547 46.2656 68.9719 39.457C69.743 34.3055 70.432 26.5617 70.6453 20.6883L70.7602 17.7844L70.3336 17.4563C70.0383 17.2102 69.4477 17.0625 68.2336 16.9148C61.4742 16.0945 55.3711 14.5688 46.6758 11.5664C44.2312 10.7133 42.082 10.0078 41.9016 10.0078C41.7375 10.0242 41.2289 10.1719 40.7695 10.3523Z" fill="#323232"/>
<path d="M40.6875 17.8993C40.1953 17.9813 39.3094 18.2766 38.7188 18.5555C37.7672 19.0313 36.832 19.9008 29.8102 26.8899C21.1477 35.5196 21.1641 35.5032 21.1641 37.4063C21.1641 39.8672 22.9359 41.6555 25.3805 41.6719H26.3977L26.4469 47.611C26.4961 53.4024 26.5125 53.5829 26.857 54.2391C27.3492 55.1743 28.4484 56.0602 29.4328 56.3555C30.6469 56.7165 53.3531 56.7165 54.5672 56.3555C55.5516 56.0602 56.6508 55.1743 57.143 54.2391C57.4875 53.5829 57.5039 53.4024 57.5531 47.611L57.6023 41.6719H58.6195C61.0641 41.6555 62.8359 39.8672 62.8359 37.4063C62.8359 35.6836 62.4586 35.1422 59.0953 31.779C56.5359 29.236 56.1094 28.875 55.65 28.875C54.9773 28.875 54.4688 29.3836 54.4688 30.0563C54.4688 30.5157 54.8297 30.9422 57.4219 33.5672L60.375 36.5368V37.3407C60.3586 38.5547 59.7023 39.211 58.4719 39.211C57.8648 39.211 57.5859 38.9485 50.2031 31.5821C43.0992 24.4946 42.525 23.9532 42 23.9532C41.475 23.9532 40.9008 24.4946 33.7969 31.5821C26.4141 38.9485 26.1352 39.211 25.5281 39.211C24.2977 39.211 23.6414 38.5547 23.625 37.3243V36.504L31.3031 28.8422C39.9 20.2618 39.8672 20.2782 42 20.2782C43.9031 20.2782 44.5266 20.6883 48.3328 24.4782C51.2695 27.3821 51.7289 27.7758 52.1883 27.7758C52.8281 27.7758 53.3203 27.2508 53.3203 26.529C53.3203 26.086 52.8937 25.5938 50.1703 22.8376C48.4312 21.0985 46.5773 19.3758 46.0359 19.0149C44.5266 17.9977 42.525 17.5876 40.6875 17.8993ZM48.5953 33.4196L55.125 39.9493V46.3149C55.125 53.304 55.1086 53.386 54.1406 53.8946C53.7797 54.075 53.107 54.1407 51.4336 54.1407H49.2187V48.0868C49.2187 41.1141 49.1531 40.704 47.8242 38.8993C46.4297 36.9961 44.3789 36.0118 41.918 36.0282C39.5062 36.0446 37.6687 36.9633 36.225 38.85C34.8469 40.6711 34.7812 41.0649 34.7812 48.0868V54.1407H32.5664C30.893 54.1407 30.2203 54.075 29.8594 53.8946C28.8914 53.386 28.875 53.304 28.875 46.3149V39.9493L35.3883 33.436C38.9812 29.843 41.9508 26.9063 42 26.9063C42.0492 26.9063 45.0187 29.843 48.5953 33.4196ZM44.018 38.8665C44.9859 39.3422 45.9047 40.261 46.3641 41.2618C46.7578 42.0821 46.7578 42.1149 46.7578 48.1032V54.1407H42H37.2422V48.1032V42.0821L37.6359 41.2618C38.1117 40.2938 38.4234 39.9165 39.2437 39.3094C40.5398 38.3415 42.5578 38.161 44.018 38.8665Z" fill="#323232"/>
</svg>
