<svg width="84" height="84" viewBox="0 0 84 84" fill="none" xmlns="http://www.w3.org/2000/svg">
<path d="M37.4883 0.114822C37.1273 0.131233 36.143 0.213264 35.2898 0.262482C34.1086 0.344513 33.6984 0.426544 33.4523 0.672638C33.0094 1.11561 33.0422 1.98514 33.5344 2.44451L33.9281 2.80545L37.0125 2.60857C40.6383 2.37889 46.9055 2.49373 50.6953 2.87108C56.0109 3.37967 63.2625 4.85623 64.493 5.66014C64.8211 5.87342 65.264 6.33279 65.4773 6.67732L65.8711 7.30077L65.9203 28.3336L65.9531 49.3828H42H18.0469L18.0797 28.3336L18.1289 7.30077L18.5062 6.69373C19.1789 5.59451 19.95 5.28279 24.1828 4.33123C25.5609 4.01952 26.7586 3.65858 26.9226 3.51092C27.3492 3.13358 27.3328 2.23123 26.8898 1.78826C26.4633 1.3617 25.9711 1.39452 23.0344 2.05077C18.9 2.98592 17.6695 3.57655 16.6031 5.15154C15.5203 6.79217 15.5859 4.75779 15.6187 35.5359L15.668 63.4101L16.2094 64.5094C16.7344 65.5922 17.6203 66.5437 18.5883 67.0359C18.8344 67.1672 19.9336 67.5281 21.0492 67.8234L23.0508 68.3812L23.1492 70.3992C23.2476 72.7289 23.4937 73.3687 24.593 74.3695C25.3312 75.0258 26.4469 75.4195 29.4984 76.0594C30.5484 76.2726 31.4344 76.4531 31.4508 76.4531C31.4672 76.4531 31.5 78.0117 31.5328 79.9148C31.582 83.3273 31.582 83.3765 31.9758 83.6883C32.468 84.0984 33.2226 84.082 33.6328 83.6718C33.9445 83.3601 33.9609 83.1304 33.9609 80.0789V76.7976L34.9125 76.8961C35.4211 76.9289 35.9297 76.9945 36.0445 77.0273C36.1758 77.0765 36.2414 78.0117 36.2906 80.2265C36.3398 83.3109 36.3562 83.3765 36.7336 83.6883C37.193 84.0656 37.8656 84.082 38.3578 83.7375C38.7023 83.4914 38.7187 83.4093 38.7187 80.3742V77.2734H42H45.2812V80.3742C45.2812 83.4093 45.2976 83.4914 45.6422 83.7375C46.1344 84.082 46.807 84.0656 47.2664 83.6883C47.6437 83.3765 47.6601 83.3109 47.7094 80.2265C47.7586 78.0117 47.8242 77.0765 47.9555 77.0273C48.0703 76.9945 48.5789 76.9289 49.1039 76.8797L50.039 76.7812V80.0625C50.039 83.1304 50.0555 83.3601 50.3672 83.6718C50.7773 84.082 51.532 84.0984 52.0242 83.6883C52.418 83.3765 52.418 83.3273 52.4672 79.964C52.5 77.6179 52.582 76.5023 52.7133 76.4203C52.8117 76.3547 53.2547 76.2562 53.6976 76.207C54.1406 76.1414 54.6492 75.9445 54.8133 75.7804C55.2726 75.3211 55.2234 74.4679 54.7148 73.9922C54.3047 73.6148 54.2719 73.5984 53.107 73.8117C43.9031 75.4523 34.6664 75.1734 27.464 73.0242C25.8398 72.5484 25.6922 72.3351 25.6101 70.432L25.5609 68.857L26.1515 68.9719C29.4984 69.5953 34.8961 70.1367 39.6211 70.3172C44.3133 70.4812 52.0734 69.9562 56.6344 69.1523C57.389 69.0211 58.0945 68.9062 58.2094 68.9062C58.357 68.9062 58.4062 69.3164 58.4062 70.3828C58.4062 71.6461 58.4555 71.9086 58.7344 72.1875C59.1937 72.6468 59.9648 72.614 60.457 72.1054C60.8344 71.7445 60.8672 71.5969 60.8672 70.0219V68.332L62.7211 67.8562C63.7219 67.6101 64.9195 67.2164 65.3461 66.9867C66.4125 66.4617 67.3805 65.4445 67.9055 64.3289L68.332 63.4101V35.1914V6.97264L67.9055 6.05389C67.3476 4.87263 66.4289 3.85545 65.4609 3.36327C62.9508 2.08357 54.6328 0.60701 47.4961 0.164047C45.1008 0.0163879 39.0797 -0.0164261 37.4883 0.114822ZM65.9531 57.1758C65.9531 63.0656 65.9203 63.2461 64.9195 64.2797C64.3453 64.8867 63.4594 65.1984 60.539 65.8547C48.8086 68.4797 35.7328 68.5289 24.1008 66.0187C20.0648 65.1492 19.0148 64.6898 18.4406 63.5414C18.1617 62.9672 18.1289 62.4422 18.0797 57.3726L18.0305 51.8437H42H65.9531V57.1758Z" fill="#323232"/>
<path d="M32.6484 58.0781C31.943 58.7836 32.4352 60.2109 33.3867 60.2109C33.9609 60.2109 34.6172 59.5219 34.6172 58.9313C34.6172 57.9469 33.3375 57.3891 32.6484 58.0781Z" fill="#323232"/>
<path d="M41.1797 58.078C40.7203 58.5374 40.7531 59.407 41.2289 59.8499C41.7047 60.3093 42.164 60.3093 42.7218 59.8663C43.575 59.1937 43.0992 57.7499 42 57.7499C41.7211 57.7499 41.3601 57.8976 41.1797 58.078Z" fill="#323232"/>
<path d="M49.7438 58.1273C49.2352 58.6687 49.268 59.4398 49.8094 59.8663C50.6789 60.5554 51.6797 60.0796 51.6797 58.9804C51.6797 57.8648 50.482 57.3398 49.7438 58.1273Z" fill="#323232"/>
<path d="M39.457 12.6164C32.55 14.618 30.3187 23.2148 35.3718 28.2844C37.1929 30.0891 39.4242 31.0078 42.0328 31.0078C44.6085 31.0078 46.807 30.0891 48.6281 28.2844C51.9914 24.9047 52.3031 19.5727 49.35 15.832C48.0703 14.2242 46.3148 13.0758 44.346 12.5672C43.0335 12.2227 40.7203 12.2391 39.457 12.6164ZM43.9851 15.0281C46.9218 15.8977 48.8906 18.5391 48.8906 21.6562C48.8906 24.3961 47.3976 26.7422 44.871 27.9891C43.9523 28.432 43.7554 28.4648 42 28.4648C40.2445 28.4648 40.0476 28.432 39.1289 27.9891C37.7507 27.3164 36.4218 25.9875 35.7492 24.6422C35.2898 23.6906 35.1914 23.3297 35.1421 22.05C35.0273 19.3922 35.9953 17.407 38.1609 15.9141C39.7031 14.8312 42.0984 14.4703 43.9851 15.0281Z" fill="#323232"/>
<path d="M42.2789 19.6711C41.2289 20.7211 40.6875 21.4102 40.6875 21.6398C40.6875 22.1156 41.5406 22.9688 42.0164 22.9688C42.2789 22.9688 42.9023 22.4437 44.0016 21.3609C45.7734 19.5891 45.9375 19.1789 45.1992 18.457C44.4609 17.7023 44.0344 17.8664 42.2789 19.6711Z" fill="#323232"/>
</svg>
